# This file uses centimeters as units for non-parametric coordinates.

mtllib hammer.mtl
g default
v 1.323315 1.851980 0.041853
v 1.644068 1.851980 0.041853
v 1.323315 1.948869 0.041853
v 1.644068 1.948869 0.041853
v 1.323315 1.948869 -0.041853
v 1.644068 1.948869 -0.041853
v 1.323315 1.851980 -0.041853
v 1.644068 1.851980 -0.041853
v 1.592977 1.948869 -0.041853
v 1.592977 1.851980 -0.041853
v 1.592977 1.851980 0.041853
v 1.592977 1.948869 0.041853
v 1.374406 1.948869 -0.041853
v 1.374406 1.851980 -0.041853
v 1.374406 1.851980 0.041853
v 1.374406 1.948869 0.041853
v 1.570403 1.924424 -0.020125
v 1.570403 1.876424 -0.020125
v 1.570403 1.876424 0.020125
v 1.570403 1.924424 0.020125
v 1.396980 1.924424 -0.020125
v 1.396980 1.876424 -0.020125
v 1.396980 1.876424 0.020125
v 1.396980 1.924424 0.020125
v 1.483692 1.935952 -0.029792
v 1.483692 1.864896 -0.029792
v 1.483692 1.864896 0.029792
v 1.483692 1.935952 0.029792
v 1.548723 1.925891 -0.021356
v 1.515806 1.933426 -0.027674
v 1.548723 1.874957 -0.021356
v 1.515806 1.867422 -0.027674
v 1.548723 1.874957 0.021356
v 1.515806 1.867422 0.027674
v 1.548723 1.925891 0.021356
v 1.515806 1.933426 0.027674
v 1.451577 1.933426 -0.027674
v 1.418660 1.925891 -0.021356
v 1.418660 1.874957 -0.021356
v 1.451577 1.867422 -0.027674
v 1.418660 1.874957 0.021356
v 1.451577 1.867422 0.027674
v 1.418660 1.925891 0.021356
v 1.451577 1.933426 0.027674
v 1.483692 1.900424 -0.038254
v 1.451577 1.900424 -0.035534
v 1.418660 1.900424 -0.027421
v 1.396980 1.900424 -0.025842
v 1.374406 1.900424 -0.053741
v 1.323315 1.900424 -0.053741
v 1.323315 1.900424 0.053741
v 1.374406 1.900424 0.053741
v 1.396980 1.900424 0.025842
v 1.418660 1.900424 0.027421
v 1.451577 1.900424 0.035534
v 1.483692 1.900424 0.038254
v 1.515806 1.900424 0.035534
v 1.548723 1.900424 0.027421
v 1.570403 1.900424 0.025842
v 1.592977 1.900424 0.053741
v 1.644068 1.900424 0.053741
v 1.644068 1.900424 -0.053741
v 1.592977 1.900424 -0.053741
v 1.570403 1.900424 -0.025842
v 1.548723 1.900424 -0.027421
v 1.515806 1.900424 -0.035534
v 1.644068 1.963023 0.000000
v 1.592977 1.963023 0.000000
v 1.570403 1.931436 0.000000
v 1.548723 1.933332 0.000000
v 1.515806 1.943069 0.000000
v 1.483692 1.946333 0.000000
v 1.451577 1.943069 0.000000
v 1.418660 1.933332 0.000000
v 1.396980 1.931436 0.000000
v 1.374406 1.963023 0.000000
v 1.323315 1.963023 0.000000
v 1.323315 1.900424 0.000000
v 1.323315 1.837826 0.000000
v 1.374406 1.837826 0.000000
v 1.396980 1.869412 0.000000
v 1.418660 1.867516 0.000000
v 1.449270 1.857780 0.000000
v 1.518113 1.857780 0.000000
v 1.548723 1.867516 0.000000
v 1.570403 1.869412 0.000000
v 1.592977 1.837826 0.000000
v 1.644068 1.837826 0.000000
v 1.644068 1.900424 0.000000
v 1.460090 1.292399 0.019791
v 1.507293 1.292399 0.019791
v 1.460090 1.584708 0.019791
v 1.507293 1.584708 0.019791
v 1.460090 1.584708 -0.019791
v 1.507293 1.584708 -0.019791
v 1.460090 1.292399 -0.019791
v 1.507293 1.292399 -0.019791
v 1.483692 1.584708 0.028847
v 1.483692 1.584708 -0.028847
v 1.483692 1.292399 -0.028847
v 1.483692 1.292399 0.028847
v 1.518093 1.584708 0.000000
v 1.449291 1.584708 0.000000
v 1.449291 1.292399 0.000000
v 1.518093 1.292399 0.000000
v 1.466103 1.276601 0.014749
v 1.483692 1.276601 0.021498
v 1.466103 1.276601 -0.014749
v 1.483692 1.276601 -0.021498
v 1.458055 1.276601 0.000000
v 1.501280 1.276601 -0.014749
v 1.509328 1.276601 0.000000
v 1.501280 1.276601 0.014749
v 1.483692 1.276601 0.000000
v 1.467658 1.595226 0.013445
v 1.483692 1.595226 0.019597
v 1.467658 1.595226 -0.013445
v 1.483692 1.595226 -0.019597
v 1.460322 1.595226 0.000000
v 1.499725 1.595226 0.013445
v 1.507061 1.595226 0.000000
v 1.499725 1.595226 -0.013445
v 1.467658 1.839599 0.013445
v 1.483692 1.839599 0.019597
v 1.467658 1.839599 -0.013445
v 1.483692 1.839599 -0.019597
v 1.460322 1.839599 0.000000
v 1.499725 1.839599 0.013445
v 1.507061 1.839599 0.000000
v 1.499725 1.839599 -0.013445
v 1.510280 1.848689 0.000000
v 1.506612 1.853510 0.020559
v 1.483692 1.852247 0.024694
v 1.460771 1.853510 0.020559
v 1.457103 1.848689 0.000000
v 1.460771 1.853510 -0.020559
v 1.483692 1.852247 -0.024694
v 1.506612 1.853510 -0.020559
vt 0.790903 0.046900
vt 0.828606 0.046900
vt 0.828606 0.518014
vt 0.790903 0.518014
vt 0.715495 0.518014
vt 0.677792 0.518014
vt 0.677792 0.046900
vt 0.715495 0.046900
vt 0.866309 0.046900
vt 0.904013 0.046900
vt 0.904013 0.518014
vt 0.866309 0.518014
vt 0.753199 0.046900
vt 0.753199 0.518014
vt 0.941716 0.518014
vt 0.790903 0.021438
vt 0.828606 0.021438
vt 0.677792 0.021438
vt 0.715495 0.021438
vt 0.753199 0.021438
vt 0.904013 0.021438
vt 0.866309 0.021438
vt 0.828606 0.534966
vt 0.790903 0.534966
vt 0.715495 0.534966
vt 0.677792 0.534966
vt 0.753199 0.534966
vt 0.904013 0.534966
vt 0.866309 0.534966
vt 0.941716 0.534966
vt 0.828606 0.928820
vt 0.790903 0.928820
vt 0.715495 0.928820
vt 0.677792 0.928820
vt 0.753199 0.928820
vt 0.904013 0.928820
vt 0.866309 0.928820
vt 0.941716 0.928820
vt 0.904013 0.943471
vt 0.864693 0.951241
vt 0.828606 0.949205
vt 0.792518 0.951241
vt 0.753199 0.943471
vt 0.713880 0.951241
vt 0.677792 0.949205
vt 0.943332 0.951241
vt 0.904013 0.958122
vt 0.865655 0.973663
vt 0.828606 0.969591
vt 0.791557 0.973663
vt 0.753199 0.958122
vt 0.714841 0.973663
vt 0.677792 0.969591
vt 0.979420 0.046900
vt 0.941716 0.046900
vt 0.941716 0.021438
vt 0.979420 0.021438
vt 0.979420 0.518014
vt 0.979420 0.534966
vt 0.979420 0.949205
vt 0.979420 0.928820
vt 0.979420 0.969591
vt 0.942371 0.973663
vt 0.476586 0.738376
vt 0.450981 0.726660
vt 0.476586 0.701055
vt 0.439265 0.701055
vt 0.502191 0.726660
vt 0.450981 0.675450
vt 0.513907 0.701055
vt 0.476586 0.663735
vt 0.502191 0.675450
vt 0.394122 0.016363
vt 0.393444 0.113434
vt 0.337816 0.121129
vt 0.337816 0.015058
vt 0.268136 0.115237
vt 0.268079 0.014751
vt 0.203540 0.015121
vt 0.204180 0.115607
vt 0.022109 0.018017
vt 0.022077 0.118503
vt 0.446581 0.123198
vt 0.446581 0.017714
vt 0.388656 0.647217
vt 0.268413 0.645605
vt 0.337816 0.645912
vt 0.206799 0.545589
vt 0.207387 0.646075
vt 0.147861 0.647426
vt 0.146988 0.546941
vt 0.446581 0.548083
vt 0.021874 0.548552
vt 0.021818 0.649038
vt 0.446581 0.648568
vt 0.337816 0.545426
vt 0.389524 0.546731
vt 0.268363 0.545120
vt 0.204533 0.159847
vt 0.022149 0.162035
vt 0.446581 0.159160
vt 0.393796 0.159160
vt 0.337816 0.159160
vt 0.268063 0.159160
vt 0.208726 0.501819
vt 0.148202 0.502488
vt 0.446581 0.503057
vt 0.021801 0.503288
vt 0.337816 0.501741
vt 0.388318 0.502388
vt 0.268427 0.501588
vt 0.268377 0.458896
vt 0.268301 0.393888
vt 0.337816 0.394098
vt 0.337816 0.459058
vt 0.207255 0.394106
vt 0.208137 0.459141
vt 0.147298 0.459851
vt 0.145963 0.395032
vt 0.514461 0.400764
vt 0.021858 0.460700
vt 0.446581 0.460454
vt 0.446581 0.395908
vt 0.390556 0.394988
vt 0.389215 0.459744
vt 0.268203 0.267563
vt 0.268120 0.203089
vt 0.337816 0.203251
vt 0.337816 0.267773
vt 0.205175 0.203235
vt 0.206117 0.267781
vt 0.022106 0.204727
vt 0.022044 0.265197
vt 0.446581 0.269583
vt 0.446581 0.204648
vt 0.393560 0.203938
vt 0.392212 0.268663
vt 0.206690 0.330879
vt 0.337816 0.330862
vt 0.391384 0.331820
vt 0.268252 0.330636
vt 0.083574 0.332749
vt 0.083066 0.269513
vt 0.082263 0.204554
vt 0.081735 0.161871
vt 0.083562 0.118185
vt 0.083022 0.017700
vt 0.452945 0.332811
vt 0.143237 0.116869
vt 0.142039 0.161213
vt 0.144297 0.268613
vt 0.142944 0.203856
vt 0.085909 0.548246
vt 0.085467 0.503135
vt 0.084898 0.460538
vt 0.145135 0.331781
vt 0.084076 0.395927
vt 0.142352 0.016384
vt 0.086474 0.648731
vt 0.514639 0.204893
vt 0.514565 0.265364
vt 0.514689 0.159160
vt 0.514625 0.118669
vt 0.514397 0.548552
vt 0.514341 0.649038
vt 0.514324 0.503288
vt 0.514381 0.460700
vt 0.021938 0.400764
vt 0.122658 0.829501
vt 0.122658 0.760996
vt 0.189571 0.760996
vt 0.174442 0.814347
vt 0.070875 0.814347
vt 0.055746 0.760996
vt 0.122658 0.692491
vt 0.174442 0.707645
vt 0.070875 0.707645
vt 0.286521 0.744440
vt 0.286521 0.675935
vt 0.338304 0.691089
vt 0.353433 0.744440
vt 0.219608 0.744440
vt 0.234738 0.691089
vt 0.286521 0.812945
vt 0.338304 0.797791
vt 0.234738 0.797791
vt 0.514675 0.018184
vn 0.000000 0.000000 1.000000
vn 0.000000 0.000000 1.000000
vn 0.000000 0.651386 0.758746
vn 0.000000 0.651386 0.758746
vn 0.000000 1.000000 0.000000
vn 0.000000 1.000000 0.000000
vn 0.000000 0.651386 -0.758746
vn 0.000000 0.651386 -0.758746
vn 0.000000 0.000000 -1.000000
vn 0.000000 0.000000 -1.000000
vn 0.000000 -1.000000 0.000000
vn 0.000000 -1.000000 0.000000
vn 0.000000 -0.651386 0.758746
vn 0.000000 -0.651386 0.758746
vn 1.000000 0.000000 0.000000
vn 1.000000 0.000000 0.000000
vn 1.000000 0.000000 0.000000
vn 1.000000 0.000000 0.000000
vn -1.000000 0.000000 0.000000
vn -1.000000 0.000000 0.000000
vn -1.000000 0.000000 0.000000
vn -1.000000 0.000000 0.000000
vn 0.000000 0.651386 -0.758746
vn 0.000000 0.651386 -0.758746
vn 0.000000 0.000000 -1.000000
vn 0.000000 0.000000 -1.000000
vn 0.000000 -0.651386 0.758746
vn 0.000000 -1.000000 0.000000
vn 0.000000 -1.000000 0.000000
vn 0.000000 -0.651386 0.758746
vn 0.000000 0.651386 0.758746
vn 0.000000 0.000000 1.000000
vn 0.000000 0.000000 1.000000
vn 0.000000 0.651386 0.758746
vn 0.000000 1.000000 0.000000
vn 0.000000 1.000000 0.000000
vn 0.819895 0.365226 -0.440888
vn 0.820568 0.372646 -0.433362
vn 0.776122 -0.000000 -0.630582
vn 0.776122 -0.000000 -0.630582
vn 0.819895 -0.365225 0.440888
vn 0.814795 -0.579749 0.000000
vn 0.814795 -0.579749 0.000000
vn 0.820568 -0.372646 0.433362
vn 0.819895 0.365226 0.440888
vn 0.776122 0.000000 0.630582
vn 0.776122 0.000000 0.630582
vn 0.820568 0.372646 0.433362
vn 0.814795 0.579749 0.000000
vn 0.814795 0.579749 0.000000
vn -0.820568 0.372647 -0.433363
vn -0.819894 0.365226 -0.440889
vn -0.776122 -0.000000 -0.630583
vn -0.776122 -0.000000 -0.630583
vn -0.820568 -0.372646 0.433363
vn -0.814795 -0.579750 -0.000000
vn -0.814795 -0.579750 -0.000000
vn -0.819895 -0.365226 0.440888
vn -0.820567 0.372647 0.433363
vn -0.776122 -0.000000 0.630583
vn -0.776122 -0.000000 0.630583
vn -0.819894 0.365226 0.440889
vn -0.814794 0.579750 0.000000
vn -0.814794 0.579750 0.000000
vn 0.218886 0.975750 -0.000000
vn 0.185566 0.982632 0.000000
vn 0.181611 0.629589 0.755404
vn 0.220009 0.624338 0.749532
vn 0.181611 0.629589 -0.755404
vn 0.220009 0.624338 -0.749532
vn 0.183668 0.000000 -0.982988
vn 0.155534 0.000000 -0.987831
vn 0.455914 -0.890024 0.000000
vn 0.224590 -0.974453 -0.000000
vn 0.221772 -0.616369 0.755583
vn 0.234300 -0.467489 0.852383
vn 0.155534 0.000000 0.987831
vn 0.183668 0.000000 0.982988
vn -0.185566 0.982632 -0.000000
vn -0.218886 0.975750 -0.000000
vn -0.220009 0.624338 0.749532
vn -0.181611 0.629589 0.755404
vn -0.220009 0.624338 -0.749532
vn -0.181611 0.629589 -0.755404
vn -0.155534 0.000000 -0.987831
vn -0.183668 0.000000 -0.982988
vn -0.224590 -0.974453 -0.000000
vn -0.455914 -0.890024 -0.000000
vn -0.234300 -0.467489 0.852383
vn -0.221772 -0.616369 0.755583
vn -0.183668 0.000000 0.982988
vn -0.155534 0.000000 0.987831
vn -0.086598 0.637673 -0.765424
vn -0.072682 -0.000000 -0.997355
vn -0.086599 -0.637673 0.765424
vn -0.087123 -0.996198 0.000000
vn -0.086598 0.637673 0.765424
vn -0.072682 0.000000 0.997355
vn -0.087121 0.996198 -0.000000
vn 0.086598 0.637674 -0.765424
vn 0.072681 0.000000 -0.997355
vn 0.087123 -0.996198 0.000000
vn 0.086599 -0.637673 0.765424
vn 0.072681 0.000000 0.997355
vn 0.086598 0.637674 0.765424
vn 0.087121 0.996198 0.000000
vn 0.000000 0.640258 -0.768160
vn 0.000000 -0.000000 -1.000000
vn 0.000000 0.640258 0.768160
vn -0.000000 -0.000000 1.000000
vn -0.000000 1.000000 0.000000
vn -0.000000 -0.294372 -0.955691
vn -0.234300 -0.467489 -0.852383
vn -0.221772 -0.616369 -0.755583
vn -0.086599 -0.637673 -0.765424
vn 0.820568 -0.372646 -0.433362
vn 0.819895 -0.365225 -0.440888
vn 0.000000 -0.651386 -0.758746
vn 0.000000 -0.651386 -0.758746
vn -1.000000 0.000000 0.000000
vn -1.000000 0.000000 0.000000
vn -1.000000 0.000000 0.000000
vn -1.000000 0.000000 0.000000
vn -0.000000 -0.294372 0.955691
vn 1.000000 -0.000000 0.000000
vn 1.000000 -0.000000 0.000000
vn 1.000000 -0.000000 0.000000
vn 1.000000 -0.000000 0.000000
vn 0.000000 -0.651386 -0.758746
vn 0.000000 -0.651386 -0.758746
vn -0.819895 -0.365226 -0.440888
vn -0.820568 -0.372646 -0.433363
vn 0.086599 -0.637673 -0.765424
vn 0.221772 -0.616369 -0.755583
vn 0.234300 -0.467489 -0.852383
vn -1.000000 0.000000 0.000000
vn -1.000000 0.000000 0.000000
vn -1.000000 0.000000 0.000000
vn -1.000000 0.000000 0.000000
vn -1.000000 -0.000000 0.000000
vn -1.000000 -0.000000 0.000000
vn -1.000000 -0.000000 0.000000
vn -1.000000 -0.000000 0.000000
vn 1.000000 0.000000 0.000000
vn 1.000000 0.000000 0.000000
vn 1.000000 0.000000 0.000000
vn 1.000000 0.000000 0.000000
vn 1.000000 0.000000 0.000000
vn 1.000000 0.000000 0.000000
vn 1.000000 0.000000 0.000000
vn 1.000000 0.000000 0.000000
vn -0.642540 0.000000 0.766252
vn 0.000000 0.000000 1.000000
vn 0.000000 0.000000 1.000000
vn -0.642540 0.000000 0.766252
vn -0.642540 0.000000 -0.766252
vn 0.000000 0.000000 -1.000000
vn 0.000000 0.000000 -1.000000
vn -0.642540 0.000000 -0.766252
vn 0.642540 0.000000 0.766252
vn 1.000000 0.000000 0.000000
vn 1.000000 0.000000 0.000000
vn 0.642540 0.000000 0.766252
vn -1.000000 0.000000 0.000000
vn -1.000000 0.000000 0.000000
vn 0.642540 0.000000 -0.766252
vn 0.642540 0.000000 -0.766252
vn 0.000000 -0.421789 0.906694
vn -0.577197 -0.439372 0.688329
vn -0.577197 -0.439372 0.688329
vn 0.000000 -0.421789 0.906694
vn -0.577197 -0.439372 -0.688329
vn 0.000000 -0.421789 -0.906694
vn 0.000000 -0.421789 -0.906694
vn -0.577197 -0.439372 -0.688329
vn -0.874452 -0.485112 0.000000
vn -0.874452 -0.485112 0.000000
vn 0.577197 -0.439372 -0.688329
vn 0.874452 -0.485112 0.000000
vn 0.874452 -0.485112 0.000000
vn 0.577197 -0.439372 -0.688329
vn 0.577197 -0.439372 0.688329
vn 0.577197 -0.439372 0.688329
vn 0.000000 -1.000000 -0.000000
vn 0.000000 -1.000000 -0.000001
vn -0.000000 -1.000000 0.000000
vn 0.000000 -1.000000 0.000001
vn 0.000000 -1.000000 0.000000
vn 0.000000 -1.000000 0.000000
vn -0.000000 -1.000000 0.000001
vn -0.000000 -1.000000 0.000000
vn -0.000000 -1.000000 -0.000001
vn -0.471763 0.678916 0.562595
vn -0.000000 0.660400 0.750914
vn -0.000000 0.660401 0.750914
vn -0.471763 0.678916 0.562595
vn 0.000000 0.660400 -0.750914
vn -0.471763 0.678916 -0.562595
vn -0.471763 0.678916 -0.562595
vn 0.000000 0.660401 -0.750914
vn -0.690071 0.723742 -0.000000
vn -0.690071 0.723742 -0.000000
vn 0.471763 0.678916 0.562595
vn 0.690071 0.723742 0.000000
vn 0.690071 0.723742 0.000000
vn 0.471763 0.678916 0.562595
vn 0.471763 0.678916 -0.562595
vn 0.471763 0.678916 -0.562595
vn -0.642540 0.000000 0.766252
vn 0.000000 0.000000 1.000000
vn 0.000000 0.000000 1.000000
vn -0.642540 0.000000 0.766252
vn 0.000000 0.000000 -1.000000
vn -0.642540 0.000000 -0.766252
vn -0.642540 0.000000 -0.766252
vn 0.000000 0.000000 -1.000000
vn -1.000000 0.000000 0.000000
vn -1.000000 0.000000 0.000000
vn 0.642540 0.000000 0.766252
vn 1.000000 0.000000 0.000000
vn 1.000000 0.000000 0.000000
vn 0.642540 0.000000 0.766252
vn 0.642540 0.000000 -0.766252
vn 0.642540 0.000000 -0.766252
vn 0.809740 -0.586788 0.000000
vn 0.469906 -0.565569 0.677731
vn 0.544506 -0.498946 0.674215
vn 0.870948 -0.491375 0.000000
vn 0.000000 -0.461354 0.887216
vn 0.000000 -0.470188 0.882566
vn -0.469906 -0.565570 0.677730
vn -0.544504 -0.498946 0.674216
vn -0.809739 -0.586790 0.000000
vn -0.870947 -0.491377 0.000000
vn -0.469907 -0.565570 -0.677730
vn -0.544505 -0.498947 -0.674216
vn -0.000000 -0.461354 -0.887216
vn 0.000000 -0.470188 -0.882566
vn 0.469907 -0.565569 -0.677731
vn 0.544506 -0.498946 -0.674215
s 1
g hammer
usemtl there:standardSurface1SG
f 51/73/1 52/74/2 16/75/3 3/76/4
f 3/76/4 16/75/3 76/77/5 77/78/6
f 5/79/7 13/80/8 49/149/9 50/158/10
f 79/187/11 80/163/12 15/83/13 1/84/14
s off
f 61/169/15 89/170/16 67/171/17 4/172/18
f 78/178/19 51/179/20 3/180/21 77/181/22
s 3
f 9/88/23 6/89/24 62/90/25 63/91/26
f 11/92/27 87/164/28 88/165/29 2/95/30
f 12/96/31 60/97/32 61/85/33 4/87/34
f 68/98/35 12/96/31 4/87/34 67/86/36
s 5
f 13/80/37 21/99/38 48/150/39 49/149/40
f 15/83/41 80/163/42 81/162/43 23/101/44
f 16/75/45 52/74/46 53/102/47 24/103/48
f 76/77/49 16/75/45 24/103/48 75/104/50
s 7
f 17/105/51 9/88/52 63/91/53 64/106/54
f 19/107/55 86/166/56 87/164/57 11/92/58
f 20/109/59 59/110/60 60/97/61 12/96/62
f 69/111/63 20/109/59 12/96/62 68/98/64
s 9
f 70/112/65 71/113/66 36/114/67 35/115/68
f 30/116/69 29/117/70 65/118/71 66/119/72
f 84/120/73 85/167/74 33/122/75 34/123/76
f 57/124/77 58/125/78 35/115/68 36/114/67
f 73/126/79 74/127/80 43/128/81 44/129/82
f 38/130/83 37/131/84 46/151/85 47/152/86
f 82/160/87 83/161/88 42/134/89 41/135/90
f 54/136/91 55/137/92 44/129/82 43/128/81
f 21/99/93 38/130/83 47/152/86 48/150/94
f 23/101/95 81/162/96 82/160/87 41/135/90
f 24/103/97 53/102/98 54/136/91 43/128/81
f 75/104/99 24/103/97 43/128/81 74/127/80
f 29/117/70 17/105/100 64/106/101 65/118/71
f 33/122/75 85/167/74 86/166/102 19/107/103
f 35/115/68 58/125/78 59/110/104 20/109/105
f 70/112/65 35/115/68 20/109/105 69/111/106
f 25/138/107 30/116/69 66/119/72 45/156/108
f 28/139/109 56/140/110 57/124/77 36/114/67
f 72/141/111 28/139/109 36/114/67 71/113/66
f 37/131/84 25/138/107 45/156/108 46/151/85
f 44/129/82 55/137/92 56/140/110 28/139/109
f 73/126/79 44/129/82 28/139/109 72/141/111
f 46/151/85 45/156/108 26/142/112 40/143/113
f 47/152/86 46/151/85 40/143/113 39/144/114
f 48/150/94 47/152/86 39/144/114 22/145/115
s 5
f 49/149/40 48/150/39 22/145/116 14/146/117
s 1
f 50/158/10 49/149/9 14/146/118 7/147/119
s off
f 79/182/120 1/183/121 51/179/122 78/178/123
s 1
f 1/84/14 15/83/13 52/74/2 51/73/1
s 5
f 53/102/47 52/74/46 15/83/41 23/101/44
s 9
f 54/136/91 53/102/98 23/101/95 41/135/90
f 41/135/90 42/134/89 55/137/92 54/136/91
f 56/140/110 55/137/92 42/134/89 27/148/124
f 57/124/77 56/140/110 27/148/124 34/123/76
f 34/123/76 33/122/75 58/125/78 57/124/77
f 59/110/104 58/125/78 33/122/75 19/107/103
s 7
f 60/97/61 59/110/60 19/107/55 11/92/58
s 3
f 61/85/33 60/97/32 11/92/27 2/95/30
s off
f 2/173/125 88/174/126 89/170/127 61/169/128
s 3
f 63/91/26 62/90/25 8/159/129 10/153/130
s 7
f 64/106/54 63/91/53 10/153/131 18/154/132
s 9
f 65/118/71 64/106/101 18/154/133 31/155/134
f 66/119/72 65/118/71 31/155/134 32/157/135
f 45/156/108 66/119/72 32/157/135 26/142/112
s 3
f 9/88/23 68/98/35 67/86/36 6/89/24
s 7
f 17/105/51 69/111/63 68/98/64 9/88/52
s 9
f 29/117/70 70/112/65 69/111/106 17/105/100
f 29/117/70 30/116/69 71/113/66 70/112/65
f 25/138/107 72/141/111 71/113/66 30/116/69
f 37/131/84 73/126/79 72/141/111 25/138/107
f 37/131/84 38/130/83 74/127/80 73/126/79
f 21/99/93 75/104/99 74/127/80 38/130/83
s 5
f 13/80/37 76/77/49 75/104/50 21/99/38
s 1
f 77/78/6 76/77/5 13/80/8 5/79/7
s off
f 50/184/136 78/178/137 77/181/138 5/185/139
f 7/186/140 79/182/141 78/178/142 50/184/143
s 1
f 7/147/119 14/146/118 80/82/12 79/81/11
s 5
f 81/100/43 80/82/42 14/146/117 22/145/116
s 9
f 82/132/87 81/100/96 22/145/115 39/144/114
f 39/144/114 40/143/113 83/133/88 82/132/87
f 32/157/135 31/155/134 85/121/74 84/168/73
f 86/108/102 85/121/74 31/155/134 18/154/133
s 7
f 87/93/57 86/108/56 18/154/132 10/153/131
s 3
f 88/94/29 87/93/28 10/153/130 8/159/129
s off
f 89/170/144 88/174/145 8/177/146 62/175/147
f 67/171/148 89/170/149 62/175/150 6/176/151
s 13
f 90/1/152 101/2/153 98/3/154 92/4/155
f 94/5/156 99/6/157 100/7/158 96/8/159
f 91/9/160 105/10/161 102/11/162 93/12/163
f 104/13/164 90/1/152 92/4/155 103/14/165
f 100/54/158 99/58/157 95/15/166 97/55/167
f 98/3/154 101/2/153 91/9/160 93/12/163
f 96/8/159 104/13/164 103/14/165 94/5/156
f 102/11/162 105/10/161 97/55/167 95/15/166
s 16
f 101/2/168 90/1/169 106/16/170 107/17/171
f 96/8/172 100/7/173 109/18/174 108/19/175
f 104/13/176 96/8/172 108/19/175 110/20/177
f 97/55/178 105/10/179 112/21/180 111/56/181
f 100/54/173 97/55/178 111/56/181 109/57/174
f 91/9/182 101/2/168 107/17/171 113/22/183
f 90/1/169 104/13/176 110/20/177 106/16/170
f 105/10/179 91/9/182 113/22/183 112/21/180
s 19
f 107/64/184 106/65/185 114/66/186
f 108/69/187 109/71/188 114/66/186
f 110/67/189 108/69/187 114/66/186
f 111/72/190 112/70/191 114/66/186
f 109/71/188 111/72/190 114/66/186
f 113/68/192 107/64/184 114/66/186
f 106/65/185 110/67/189 114/66/186
f 112/70/191 113/68/192 114/66/186
s 22
f 92/4/193 98/3/194 116/23/195 115/24/196
f 99/6/197 94/5/198 117/25/199 118/26/200
f 103/14/201 92/4/193 115/24/196 119/27/202
f 93/12/203 102/11/204 121/28/205 120/29/206
f 98/3/194 93/12/203 120/29/206 116/23/195
f 95/15/207 99/58/197 118/59/200 122/30/208
f 102/11/204 95/15/207 122/30/208 121/28/205
f 94/5/198 103/14/201 119/27/202 117/25/199
s 25
f 115/24/209 116/23/210 124/31/211 123/32/212
f 118/26/213 117/25/214 125/33/215 126/34/216
f 119/27/217 115/24/209 123/32/212 127/35/218
f 120/29/219 121/28/220 129/36/221 128/37/222
f 116/23/210 120/29/219 128/37/222 124/31/211
f 122/30/223 118/59/213 126/61/216 130/38/224
f 121/28/220 122/30/223 130/38/224 129/36/221
f 117/25/214 119/27/217 127/35/218 125/33/215
s 9
f 131/39/225 132/40/226 128/37/227 129/36/228
f 132/40/226 133/41/229 124/31/230 128/37/227
f 133/41/229 134/42/231 123/32/232 124/31/230
f 134/42/231 135/43/233 127/35/234 123/32/232
f 135/43/233 136/44/235 125/33/236 127/35/234
f 136/44/235 137/45/237 126/34/238 125/33/236
f 137/60/237 138/46/239 130/38/240 126/61/238
f 138/46/239 131/39/225 129/36/228 130/38/240
f 84/47/73 34/48/76 132/40/226 131/39/225
f 34/48/76 27/49/124 133/41/229 132/40/226
f 27/49/124 42/50/89 134/42/231 133/41/229
f 42/50/89 83/51/88 135/43/233 134/42/231
f 83/51/88 40/52/113 136/44/235 135/43/233
f 40/52/113 26/53/112 137/45/237 136/44/235
f 26/62/112 32/63/135 138/46/239 137/60/237
f 32/63/135 84/47/73 131/39/225 138/46/239
